<?xml version="1.0" encoding="UTF-8" standalone="no"?>
<!-- Created with Inkscape (http://www.inkscape.org/) -->

<svg
   width="779.99194"
   height="757.09808"
   viewBox="0 0 206.37286 200.31553"
   version="1.1"
   id="svg5"
   inkscape:version="1.2.2 (732a01da63, 2022-12-09)"
   xml:space="preserve"
   xmlns:inkscape="http://www.inkscape.org/namespaces/inkscape"
   xmlns:sodipodi="http://sodipodi.sourceforge.net/DTD/sodipodi-0.dtd"
   xmlns="http://www.w3.org/2000/svg"
   xmlns:svg="http://www.w3.org/2000/svg"><sodipodi:namedview
     id="namedview7"
     pagecolor="#505050"
     bordercolor="#eeeeee"
     borderopacity="1"
     inkscape:showpageshadow="0"
     inkscape:pageopacity="0"
     inkscape:pagecheckerboard="0"
     inkscape:deskcolor="#999999"
     inkscape:document-units="mm"
     showgrid="false"
     showborder="false"
     borderlayer="false"
     inkscape:zoom="0.43703704"
     inkscape:cx="760.80509"
     inkscape:cy="540"
     inkscape:window-width="2560"
     inkscape:window-height="1334"
     inkscape:window-x="-11"
     inkscape:window-y="-11"
     inkscape:window-maximized="1"
     inkscape:current-layer="layer3" /><defs
     id="defs2" /><g
     inkscape:label="Canvas"
     inkscape:groupmode="layer"
     id="layer1"
     sodipodi:insensitive="true"
     transform="translate(-142.27982,-39.666306)"><rect
       style="fill:#ffffff;fill-opacity:1;stroke-width:2.57289"
       id="rect127695"
       width="508"
       height="285.75"
       x="0"
       y="-4.9737992e-14"
       sodipodi:insensitive="true" /></g><g
     inkscape:groupmode="layer"
     id="layer3"
     inkscape:label="Layer 1"
     transform="translate(-142.27982,-39.666306)"><g
       id="g1"
       transform="translate(-6.4212636,-5.5650951)"><path
         id="path173"
         d="m 348.4805,211.70511 -7.24997,7.73826 -10.70592,-5.68404 11.58186,-12.36734 z m 3.51856,-38.41878 3.07488,10.14812 -10.27698,6.42899 -4.9158,-16.21439 z m -70.06003,32.32679 -3.07648,-10.14813 10.27697,-6.43028 4.91749,16.21439 z m 38.54617,-54.58153 10.32811,2.40856 0.42739,12.11614 -16.49762,-3.85013 z m -7.03718,76.83642 -10.32485,-2.41003 -0.42739,-12.11483 16.49926,3.85084 z m -27.99367,-60.67168 7.24997,-7.74022 10.70753,5.68598 -11.58347,12.36557 -6.37403,-10.31133"
         style="fill:#3582b3;fill-opacity:1;fill-rule:evenodd;stroke:none;stroke-width:0.164959" /><path
         id="path174"
         d="m 306.64674,179.78408 c -5.33484,5.69755 -5.04449,14.64544 0.65487,19.98471 5.70102,5.33792 14.64841,5.04609 19.98488,-0.65341 5.33808,-5.69755 5.04612,-14.6448 -0.65162,-19.98473 -5.70101,-5.3379 -14.64512,-5.04594 -19.98813,0.65343 z m -10.94016,-10.25059 c 10.99786,-11.74182 29.43542,-12.34246 41.17724,-1.34425 11.74352,11.0008 12.34396,29.43503 1.34609,41.17874 -11.00282,11.73979 -29.43707,12.34227 -41.17724,1.34094 -11.74183,-10.99754 -12.34397,-29.43491 -1.34609,-41.17543"
         style="fill:#3d92c5;fill-opacity:1;fill-rule:evenodd;stroke:none;stroke-width:0.164959" /><path
         id="path175"
         d="m 306.64674,179.78408 c -5.33484,5.69755 -5.04449,14.64544 0.65487,19.98471 5.70102,5.33792 14.64841,5.04609 19.98488,-0.65341 5.33808,-5.69755 5.04612,-14.6448 -0.65162,-19.98473 -5.70101,-5.3379 -14.64512,-5.04594 -19.98813,0.65343 z m -7.94617,-7.44628 c 9.45222,-10.08711 25.29002,-10.60391 35.37896,-1.15293 10.0856,9.45038 10.60362,25.28786 1.15307,35.37561 -9.44891,10.09027 -25.28833,10.60692 -35.37565,1.15477 -10.08892,-9.45039 -10.60525,-25.29048 -1.15638,-35.37745"
         style="fill:#abe4f5;fill-opacity:1;fill-rule:evenodd;stroke:none;stroke-width:0.164959" /><path
         id="path176"
         d="m 310.76243,183.63553 c -3.21007,3.42806 -3.03526,8.80921 0.39279,12.02079 3.42622,3.21028 8.80883,3.03382 12.01891,-0.39231 3.21016,-3.42804 3.03363,-8.80855 -0.39279,-12.01883 -3.42614,-3.21353 -8.80882,-3.03571 -12.01894,0.39045 z m -4.73597,-4.43708 c 5.6614,-6.04113 15.14827,-6.35092 21.19071,-0.69149 6.04251,5.66341 6.35424,15.14859 0.69286,21.19287 -5.66141,6.04231 -15.15155,6.35229 -21.1924,0.69267 -6.04246,-5.66142 -6.35095,-15.1486 -0.69117,-21.19405"
         style="fill:#ffffff;fill-opacity:1;fill-rule:evenodd;stroke:none;stroke-width:0.164959" /><path
         id="path177"
         d="m 204.00549,165.31529 h -14.28718 l -4.26917,-15.76339 h 22.82714 z m 41.01556,-31.9278 -7.14273,12.37364 -15.78995,-4.18502 11.41358,-19.77041 z m -96.31997,-39.111942 7.1444,-12.37528 15.78996,4.18505 -11.41521,19.770412 z m 89.17724,-12.37528 7.14273,12.37528 -11.5191,11.580182 -11.41358,-19.770412 z m -82.03284,63.860862 -7.1444,-12.37364 11.51915,-11.58179 11.41521,19.77041 z m 33.87283,-83.415207 h 14.28718 l 4.27079,15.76522 h -22.82876 l 4.27079,-15.76522"
         style="fill:#3582b3;fill-opacity:1;fill-rule:evenodd;stroke:none;stroke-width:0.164959" /><path
         id="path178"
         d="m 196.86271,94.781968 c -10.52278,0 -19.05119,8.528452 -19.05119,19.049562 0,10.51945 8.52841,19.05119 19.05119,19.05119 10.52115,0 19.04956,-8.53174 19.04956,-19.05119 0,-10.52111 -8.52841,-19.049562 -19.04956,-19.049562 z m 0,-20.200936 c 21.6757,0 39.2505,17.573156 39.2505,39.250498 0,21.67733 -17.5748,39.25036 -39.2505,39.25036 -21.67734,0 -39.25049,-17.57303 -39.25049,-39.25036 0,-21.677342 17.57315,-39.250498 39.25049,-39.250498"
         style="fill:#3d92c5;fill-opacity:1;fill-rule:evenodd;stroke:none;stroke-width:0.164959" /><path
         id="path179"
         d="m 196.86271,94.781968 c -10.52278,0 -19.05119,8.528452 -19.05119,19.049562 0,10.51945 8.52841,19.05119 19.05119,19.05119 10.52115,0 19.04956,-8.53174 19.04956,-19.05119 0,-10.52111 -8.52841,-19.049562 -19.04956,-19.049562 z m 0,-14.674827 c 18.62561,0 33.72107,15.098807 33.72107,33.724389 0,18.62557 -15.09546,33.72274 -33.72107,33.72274 -18.62395,0 -33.72435,-15.09717 -33.72435,-33.72274 0,-18.625582 15.1004,-33.724389 33.72435,-33.724389"
         style="fill:#abe4f5;fill-opacity:1;fill-rule:evenodd;stroke:none;stroke-width:0.164959" /><path
         id="path180"
         d="m 196.86271,102.37509 c -6.32788,0 -11.45807,5.12862 -11.45807,11.45644 0,6.32619 5.13019,11.45813 11.45807,11.45813 6.32789,0 11.45647,-5.13194 11.45647,-11.45813 0,-6.32782 -5.12858,-11.45644 -11.45647,-11.45644 z m 0,-8.744502 c 11.15456,0 20.1993,9.044702 20.1993,20.200942 0,11.15622 -9.04474,20.20098 -20.1993,20.20098 -11.15787,0 -20.20097,-9.04476 -20.20097,-20.20098 0,-11.15624 9.0431,-20.200942 20.20097,-20.200942"
         style="fill:#ffffff;fill-opacity:1;fill-rule:evenodd;stroke:none;stroke-width:0.164959" /><path
         id="path181"
         d="m 201.32321,112.13904 h 103.85535 c 3.71818,0 6.76172,3.04518 6.76172,6.76335 v 69.16264 c 0,3.72118 -3.04354,6.7652 -6.76172,6.7652 H 201.32321 c -3.71816,0 -6.76333,-3.04402 -6.76333,-6.7652 v -69.16264 c 0,-3.71817 3.04517,-6.76335 6.76333,-6.76335"
         style="fill:#d2f0fa;fill-opacity:1;fill-rule:evenodd;stroke:none;stroke-width:0.164959" /><path
         id="path182"
         d="m 201.32321,114.86091 h 103.85535 c 2.22369,0 4.04316,1.81786 4.04316,4.04148 v 69.16264 c 0,2.22566 -1.81947,4.04468 -4.04316,4.04468 H 201.32321 c -2.22199,0 -4.04147,-1.81902 -4.04147,-4.04468 v -69.16264 c 0,-2.22362 1.81948,-4.04148 4.04147,-4.04148"
         style="fill:#abe4f5;fill-opacity:1;fill-rule:evenodd;stroke:none;stroke-width:0.164959" /><path
         id="path183"
         d="m 201.32321,112.13904 h 103.85535 c 3.71818,0 6.76172,3.04518 6.76172,6.76335 v 3.27444 h -117.3804 v -3.27444 c 0,-3.71817 3.04517,-6.76335 6.76333,-6.76335"
         style="fill:#ffffff;fill-opacity:1;fill-rule:evenodd;stroke:none;stroke-width:0.164959" /><path
         id="path184"
         d="m 300.35351,120.54372 c 1.86074,0 3.37671,-1.51597 3.37671,-3.37669 0,-1.8591 -1.51597,-3.37675 -3.37671,-3.37675 -1.8591,0 -3.37673,1.51765 -3.37673,3.37675 0,1.86072 1.51763,3.37669 3.37673,3.37669"
         style="fill:#4eb0dd;fill-opacity:1;fill-rule:evenodd;stroke:none;stroke-width:0.164959" /><path
         id="path185"
         d="m 282.91232,113.79028 c 1.86567,0 3.37669,1.5127 3.37669,3.37675 0,1.86568 -1.51102,3.37669 -3.37669,3.37669 -1.86407,0 -3.37676,-1.51101 -3.37676,-3.37669 0,-1.86405 1.51269,-3.37675 3.37676,-3.37675 z m 8.72138,0 c 1.86405,0 3.37512,1.5127 3.37512,3.37675 0,1.86568 -1.51107,3.37669 -3.37512,3.37669 -1.86567,0 -3.37838,-1.51101 -3.37838,-3.37669 0,-1.86405 1.51271,-3.37675 3.37838,-3.37675"
         style="fill:#abe4f5;fill-opacity:1;fill-rule:evenodd;stroke:none;stroke-width:0.164959" /><path
         id="path186"
         d="m 302.95161,127.39615 h -21.47282 c -1.25533,0 -2.28303,1.02606 -2.28303,2.28306 v 20.30654 c 0,1.25713 1.0277,2.28308 2.28303,2.28308 h 21.47282 c 1.25863,0 2.28633,-1.02595 2.28633,-2.28308 v -20.30654 c 0,-1.257 -1.0277,-2.28306 -2.28633,-2.28306"
         style="fill:#4eb0dd;fill-opacity:1;fill-rule:evenodd;stroke:none;stroke-width:0.164959" /><path
         id="path187"
         d="m 302.95161,127.39615 h -21.47282 c -1.25533,0 -2.28303,1.02606 -2.28303,2.28306 v 2.42986 h 26.04218 v -2.42986 c 0,-1.257 -1.0277,-2.28306 -2.28633,-2.28306"
         style="fill:#d2f0fa;fill-opacity:1;fill-rule:evenodd;stroke:none;stroke-width:0.164959" /><path
         id="path188"
         d="m 294.69373,127.39615 h -7.57991 c -1.2537,0 -2.2814,1.02606 -2.2814,2.28306 v 2.42986 h 12.14436 v -2.42986 c 0,-1.257 -1.02934,-2.28306 -2.28305,-2.28306"
         style="fill:#65cbf3;fill-opacity:1;fill-rule:evenodd;stroke:none;stroke-width:0.164959" /><path
         id="path189"
         d="m 286.87137,127.39615 h -5.39258 c -1.25533,0 -2.28303,1.02606 -2.28303,2.28306 v 3.54664 h 9.96026 v -3.54664 c 0,-1.257 -1.0277,-2.28306 -2.28465,-2.28306"
         style="fill:#4eb0dd;fill-opacity:1;fill-rule:evenodd;stroke:none;stroke-width:0.164959" /><path
         id="path190"
         d="m 302.95161,155.42812 h -21.47282 c -1.25533,0 -2.28303,1.02588 -2.28303,2.28434 v 28.17841 c 0,1.25518 1.0277,2.28308 2.28303,2.28308 h 21.47282 c 1.25863,0 2.28633,-1.0279 2.28633,-2.28308 v -28.17841 c 0,-1.25846 -1.02934,-2.28434 -2.28633,-2.28434"
         style="fill:#4eb0dd;fill-opacity:1;fill-rule:evenodd;stroke:none;stroke-width:0.164959" /><path
         id="path191"
         d="m 302.95161,155.42812 h -21.47282 c -1.25533,0 -2.28303,1.02588 -2.28303,2.28434 v 2.42988 h 26.04218 v -2.42988 c 0,-1.25846 -1.0277,-2.28434 -2.28633,-2.28434"
         style="fill:#d2f0fa;fill-opacity:1;fill-rule:evenodd;stroke:none;stroke-width:0.164959" /><path
         id="path192"
         d="m 294.69373,155.42812 h -7.57991 c -1.2537,0 -2.2814,1.02704 -2.2814,2.28434 v 2.42988 h 12.14436 v -2.42988 c 0,-1.25846 -1.02934,-2.28434 -2.28305,-2.28434"
         style="fill:#65cbf3;fill-opacity:1;fill-rule:evenodd;stroke:none;stroke-width:0.164959" /><path
         id="path193"
         d="m 286.87137,155.42812 h -5.39258 c -1.25533,0 -2.28303,1.02588 -2.28303,2.28434 v 3.54532 h 9.96026 v -3.54532 c 0,-1.25846 -1.0277,-2.28434 -2.28465,-2.28434"
         style="fill:#4eb0dd;fill-opacity:1;fill-rule:evenodd;stroke:none;stroke-width:0.164959" /><path
         id="path194"
         d="m 273.02958,188.17395 h -67.73413 c -1.25536,0 -2.27973,-1.02457 -2.27973,-2.27995 v -56.21808 c 0,-1.25534 1.02437,-2.27977 2.27973,-2.27977 h 67.73413 c 1.25533,0 2.27972,1.02443 2.27972,2.27977 V 185.894 c 0,1.25538 -1.02439,2.27995 -2.27972,2.27995"
         style="fill:#65cbf3;fill-opacity:1;fill-rule:evenodd;stroke:none;stroke-width:0.164959" /><path
         id="path195"
         d="m 207.48614,168.01075 h 63.35277 c 0.69612,0 1.26355,0.56892 1.26355,1.26556 v 0.001 c 0,0.69264 -0.56743,1.2604 -1.26355,1.2604 h -63.35277 c -0.69614,0 -1.26524,-0.56776 -1.26524,-1.2604 v -0.001 c 0,-0.69664 0.5691,-1.26556 1.26524,-1.26556"
         style="fill:#4eb0dd;fill-opacity:1;fill-rule:evenodd;stroke:none;stroke-width:0.164959" /><path
         id="path196"
         d="m 207.48614,168.01075 h 39.74044 v 2.52734 h -39.74044 c -0.69614,0 -1.26524,-0.56782 -1.26524,-1.26046 v -10e-4 c 0,-0.69664 0.5691,-1.26562 1.26524,-1.26562"
         style="fill:#d2f0fa;fill-opacity:1;fill-rule:evenodd;stroke:none;stroke-width:0.164959" /><path
         id="path197"
         d="m 247.5202,165.85141 v 0 c 0.73241,0 1.33284,0.60064 1.33284,1.33452 v 4.17878 c 0,0.7339 -0.60043,1.33586 -1.33284,1.33586 -0.73901,0 -1.33782,-0.59868 -1.33782,-1.33586 v -4.17878 c 0,-0.73388 0.59881,-1.33452 1.33782,-1.33452"
         style="fill:#ffffff;fill-opacity:1;fill-rule:evenodd;stroke:none;stroke-width:0.164959" /><path
         id="path198"
         d="m 207.48614,161.06446 c 21.11812,0 42.23462,0 63.35277,0 0.69612,0 1.26355,0.56894 1.26355,1.26357 0,0.69596 -0.56743,1.26489 -1.26355,1.26489 -21.11815,0 -42.23465,0 -63.35277,0 -0.69614,0 -1.26524,-0.56893 -1.26524,-1.26489 0,-0.69463 0.5691,-1.26357 1.26524,-1.26357"
         style="fill:#4eb0dd;fill-opacity:1;fill-rule:evenodd;stroke:none;stroke-width:0.164959" /><path
         id="path199"
         d="m 207.48614,161.06446 c 15.12514,0 5.08405,0 20.21083,0 0,0.84276 0,1.6844 0,2.52846 -15.12678,0 -5.08569,0 -20.21083,0 -0.69614,0 -1.26524,-0.56893 -1.26524,-1.26489 0,-0.69463 0.5691,-1.26357 1.26524,-1.26357"
         style="fill:#d2f0fa;fill-opacity:1;fill-rule:evenodd;stroke:none;stroke-width:0.164959" /><path
         id="path200"
         d="m 227.98732,158.90184 v 0 c 0.73572,0 1.33455,0.6019 1.33455,1.33581 0,1.39443 0,2.78818 0,4.18009 0,0.73455 -0.59883,1.33654 -1.33455,1.33654 -0.73409,0 -1.33616,-0.60199 -1.33616,-1.33654 0,-1.39191 0,-2.78566 0,-4.18009 0,-0.73391 0.60207,-1.33581 1.33616,-1.33581"
         style="fill:#ffffff;fill-opacity:1;fill-rule:evenodd;stroke:none;stroke-width:0.164959" /><path
         id="path201"
         d="m 207.48614,154.11617 c 21.11812,0 42.23462,0 63.35277,0 0.69612,0 1.26355,0.56893 1.26355,1.2636 0,0.69466 -0.56743,1.26558 -1.26355,1.26558 -21.11815,0 -42.23465,0 -63.35277,0 -0.69614,0 -1.26524,-0.57092 -1.26524,-1.26558 0,-0.69467 0.5691,-1.2636 1.26524,-1.2636"
         style="fill:#4eb0dd;fill-opacity:1;fill-rule:evenodd;stroke:none;stroke-width:0.164959" /><path
         id="path202"
         d="m 207.48614,154.11617 c 15.12514,0 38.41249,0 53.5393,0 0,0.84281 0,1.68621 0,2.52918 -15.12681,0 -38.41416,0 -53.5393,0 -0.69614,0 -1.26524,-0.57092 -1.26524,-1.26558 0,-0.69467 0.5691,-1.2636 1.26524,-1.2636"
         style="fill:#d2f0fa;fill-opacity:1;fill-rule:evenodd;stroke:none;stroke-width:0.164959" /><path
         id="path203"
         d="m 261.3174,151.95553 v 0 c 0.73411,0 1.33455,0.60064 1.33455,1.33585 0,1.39241 0,2.78504 0,4.18008 0,0.73259 -0.60044,1.33433 -1.33455,1.33433 -0.73573,0 -1.33616,-0.60174 -1.33616,-1.33433 0,-1.39504 0,-2.78767 0,-4.18008 0,-0.73521 0.60043,-1.33585 1.33616,-1.33585"
         style="fill:#ffffff;fill-opacity:1;fill-rule:evenodd;stroke:none;stroke-width:0.164959" /><path
         id="path204"
         d="m 207.48614,147.16989 c 21.11812,0 42.23462,0 63.35277,0 0.69612,0 1.26355,0.56749 1.26355,1.2636 0,0.6945 -0.56743,1.2636 -1.26355,1.2636 -21.11815,0 -42.23465,0 -63.35277,0 -0.69614,0 -1.26524,-0.5691 -1.26524,-1.2636 0,-0.69611 0.5691,-1.2636 1.26524,-1.2636"
         style="fill:#4eb0dd;fill-opacity:1;fill-rule:evenodd;stroke:none;stroke-width:0.164959" /><path
         id="path205"
         d="m 207.48614,147.16989 c 15.12514,0 20.33954,0 35.46468,0 0,0.84132 0,1.68425 0,2.5272 -15.12514,0 -20.33954,0 -35.46468,0 -0.69614,0 -1.26524,-0.5691 -1.26524,-1.2636 0,-0.69611 0.5691,-1.2636 1.26524,-1.2636"
         style="fill:#d2f0fa;fill-opacity:1;fill-rule:evenodd;stroke:none;stroke-width:0.164959" /><path
         id="path206"
         d="m 243.24445,145.00891 v 0 c 0.7324,0 1.33283,0.50315 1.33283,1.23887 0,1.39224 0,2.88183 0,4.27577 0,0.73225 -0.60043,1.33466 -1.33283,1.33466 -0.73737,0 -1.33947,-0.60241 -1.33947,-1.33466 0,-1.39394 0,-2.78786 0,-4.18009 0,-0.7341 0.6021,-1.33455 1.33947,-1.33455"
         style="fill:#ffffff;fill-opacity:1;fill-rule:evenodd;stroke:none;stroke-width:0.164959" /><path
         id="path207"
         d="m 207.48614,140.22178 c 21.11812,0 42.23462,0 63.35277,0 0.69612,0 1.26355,0.56912 1.26355,1.26359 0,0.6945 -0.56743,1.26363 -1.26355,1.26363 -21.11815,0 -42.23465,0 -63.35277,0 -0.69614,0 -1.26524,-0.56913 -1.26524,-1.26363 0,-0.69447 0.5691,-1.26359 1.26524,-1.26359"
         style="fill:#4eb0dd;fill-opacity:1;fill-rule:evenodd;stroke:none;stroke-width:0.164959" /><path
         id="path208"
         d="m 207.48614,140.22178 c 15.12514,0 7.41492,0 22.54174,0 0,0.84133 0,1.68426 0,2.52722 -15.12682,0 -7.4166,0 -22.54174,0 -0.69614,0 -1.26524,-0.56913 -1.26524,-1.26363 0,-0.69447 0.5691,-1.26359 1.26524,-1.26359"
         style="fill:#d2f0fa;fill-opacity:1;fill-rule:evenodd;stroke:none;stroke-width:0.164959" /><path
         id="path209"
         d="m 230.31817,138.0608 v 0 c 0.73742,0 1.33618,0.60047 1.33618,1.33618 0,1.39228 0,2.78453 0,4.17681 0,0.73568 -0.59876,1.33449 -1.33618,1.33449 -0.73403,0 -1.3345,-0.59881 -1.3345,-1.33449 0,-1.39228 0,-2.78453 0,-4.17681 0,-0.73571 0.60047,-1.33618 1.3345,-1.33618"
         style="fill:#ffffff;fill-opacity:1;fill-rule:evenodd;stroke:none;stroke-width:0.164959" /><path
         id="path210"
         d="m 207.48614,133.27531 h 63.35277 c 0.69612,0 1.26355,0.56748 1.26355,1.26198 0,0.69448 -0.56743,1.26524 -1.26355,1.26524 h -63.35277 c -0.69614,0 -1.26524,-0.57076 -1.26524,-1.26524 0,-0.6945 0.5691,-1.26198 1.26524,-1.26198"
         style="fill:#4eb0dd;fill-opacity:1;fill-rule:evenodd;stroke:none;stroke-width:0.164959" /><path
         id="path211"
         d="m 207.48614,133.27531 h 45.37711 v 2.52722 h -45.37711 c -0.69614,0 -1.26524,-0.57076 -1.26524,-1.26524 0,-0.6945 0.5691,-1.26198 1.26524,-1.26198"
         style="fill:#d2f0fa;fill-opacity:1;fill-rule:evenodd;stroke:none;stroke-width:0.164959" /><path
         id="path212"
         d="m 253.15358,131.11271 v 0 c 0.73573,0 1.33617,0.60045 1.33617,1.33781 v 4.17844 c 0,0.73241 -0.60044,1.33455 -1.33617,1.33455 -0.73407,0 -1.33454,-0.60214 -1.33454,-1.33455 v -4.17844 c 0,-0.73736 0.60047,-1.33781 1.33454,-1.33781"
         style="fill:#ffffff;fill-opacity:1;fill-rule:evenodd;stroke:none;stroke-width:0.164959" /><path
         id="path213"
         d="m 256.31421,178.16613 h 11.85235 c 1.36091,0 2.47769,1.11482 2.47769,2.47573 0,1.36603 -1.11678,2.4795 -2.47769,2.4795 h -11.85235 c -1.36587,0 -2.47768,-1.11347 -2.47768,-2.4795 0,-1.36091 1.11181,-2.47573 2.47768,-2.47573 z m -45.28309,0 h 11.85401 c 1.36423,0 2.47769,1.11482 2.47769,2.47573 0,1.36603 -1.11346,2.4795 -2.47769,2.4795 h -11.85401 c -1.3626,0 -2.47774,-1.11347 -2.47774,-2.4795 0,-1.36091 1.11514,-2.47573 2.47774,-2.47573 z m 22.64071,0 c 3.95245,0 7.90323,0 11.85563,0 1.36259,0 2.47773,1.11482 2.47773,2.47573 0,1.36603 -1.11514,2.4795 -2.47773,2.4795 -3.9524,0 -7.90318,0 -11.85563,0 -1.36255,0 -2.47769,-1.11347 -2.47769,-2.4795 0,-1.36091 1.11514,-2.47573 2.47769,-2.47573"
         style="fill:#d2f0fa;fill-opacity:1;fill-rule:evenodd;stroke:none;stroke-width:0.164959" /><path
         id="path214"
         d="m 284.2468,135.94766 h 15.93843 c 1.06892,0 1.94156,0.87428 1.94156,1.94157 v 1.16631 c 0,1.07057 -0.87264,1.94321 -1.94156,1.94321 H 284.2468 c -1.06892,0 -1.94322,-0.87264 -1.94322,-1.94321 v -1.16631 c 0,-1.06729 0.8743,-1.94157 1.94322,-1.94157"
         style="fill:#65cbf3;fill-opacity:1;fill-rule:evenodd;stroke:none;stroke-width:0.164959" /><path
         id="path215"
         d="m 284.2468,144.01091 h 15.93843 c 1.06892,0 1.94156,0.87596 1.94156,1.9449 v 1.16624 c 0,1.06894 -0.87264,1.94322 -1.94156,1.94322 H 284.2468 c -1.06892,0 -1.94322,-0.87428 -1.94322,-1.94322 v -1.16624 c 0,-1.06894 0.8743,-1.9449 1.94322,-1.9449"
         style="fill:#65cbf3;fill-opacity:1;fill-rule:evenodd;stroke:none;stroke-width:0.164959" /><path
         id="path216"
         d="m 284.2468,172.28815 h 15.93843 c 1.06892,0 1.94156,0.87444 1.94156,1.9434 v 1.16624 c 0,1.06911 -0.87264,1.94359 -1.94156,1.94359 H 284.2468 c -1.06892,0 -1.94322,-0.87448 -1.94322,-1.94359 v -1.16624 c 0,-1.06896 0.8743,-1.9434 1.94322,-1.9434"
         style="fill:#65cbf3;fill-opacity:1;fill-rule:evenodd;stroke:none;stroke-width:0.164959" /><path
         id="path217"
         d="m 284.2468,180.3532 h 15.93843 c 1.06892,0 1.94156,0.87558 1.94156,1.9434 v 1.16624 c 0,1.06915 -0.87264,1.94472 -1.94156,1.94472 H 284.2468 c -1.06892,0 -1.94322,-0.87557 -1.94322,-1.94472 v -1.16624 c 0,-1.06782 0.8743,-1.9434 1.94322,-1.9434"
         style="fill:#65cbf3;fill-opacity:1;fill-rule:evenodd;stroke:none;stroke-width:0.164959" /><path
         id="path218"
         d="m 284.2468,164.41774 h 15.93843 c 1.06892,0 1.94156,0.87628 1.94156,1.9434 v 1.16511 c 0,1.07025 -0.87264,1.94472 -1.94156,1.94472 H 284.2468 c -1.06892,0 -1.94322,-0.87447 -1.94322,-1.94472 v -1.16511 c 0,-1.06712 0.8743,-1.9434 1.94322,-1.9434"
         style="fill:#65cbf3;fill-opacity:1;fill-rule:evenodd;stroke:none;stroke-width:0.164959" /><path
         id="path219"
         d="m 284.67078,91.593288 -6.28992,4.06626 -6.36579,-5.72737 10.05099,-6.49449 z m 8.97381,-25.728752 0.37454,7.480944 -8.14239,2.650889 -0.60047,-11.951305 z m -53.53768,10.187942 -0.37454,-7.479305 8.14071,-2.650889 0.60215,11.951327 z m 35.74016,-30.821078 6.66605,3.412973 -1.77497,8.37833 -10.64983,-5.458521 z m -17.94433,51.455848 -6.666,-3.41466 1.77661,-8.37832 10.64978,5.45688 z m -8.82203,-46.365198 6.28992,-4.062946 6.36907,5.725738 -10.05262,6.496126 -2.60637,-8.158918"
         style="fill:#3582b3;fill-opacity:1;fill-rule:evenodd;stroke:none;stroke-width:0.164959" /><path
         id="path220"
         d="m 261.456,62.571958 c -4.63539,2.992377 -5.96165,9.176698 -2.96763,13.807146 2.99401,4.633705 9.17669,5.961584 13.80713,2.965952 4.63539,-2.992378 5.96164,-9.173419 2.96762,-13.807125 -2.99567,-4.632087 -9.17669,-5.960013 -13.80712,-2.965973 z m -5.74884,-8.893002 c 9.54455,-6.1695 22.28111,-3.431158 28.45057,6.111752 6.16622,9.542932 3.43117,22.28113 -6.11503,28.44899 -9.54127,6.16781 -22.27783,3.43115 -28.44897,-6.11343 -6.16782,-9.541254 -3.43114,-22.281134 6.11343,-28.447312"
         style="fill:#3d92c5;fill-opacity:1;fill-rule:evenodd;stroke:none;stroke-width:0.164959" /><path
         id="path221"
         d="m 261.456,62.571958 c -4.63539,2.992377 -5.96165,9.176698 -2.96763,13.807146 2.99401,4.633705 9.17669,5.961584 13.80713,2.965952 4.63539,-2.992378 5.96164,-9.173419 2.96762,-13.807125 -2.99567,-4.632087 -9.17669,-5.960013 -13.80712,-2.965973 z m -4.17512,-6.461503 c 8.2001,-5.298498 19.1419,-2.94617 24.44205,5.253973 5.30018,8.200164 2.94785,19.141972 -5.25067,24.44209 -8.20015,5.2985 -19.14356,2.94781 -24.44373,-5.250653 -5.2985,-8.200165 -2.94782,-19.14359 5.25235,-24.44541"
         style="fill:#abe4f5;fill-opacity:1;fill-rule:evenodd;stroke:none;stroke-width:0.164959" /><path
         id="path222"
         d="m 263.61531,65.915705 c -2.7845,1.798029 -3.58293,5.517888 -1.78485,8.302417 1.80135,2.786168 5.51953,3.584538 8.30737,1.784826 2.78285,-1.799689 3.58128,-5.517888 1.78321,-8.304056 -1.80135,-2.786147 -5.51957,-3.584581 -8.30573,-1.783187 z m -2.48757,-3.850199 c 4.9125,-3.175442 11.468,-1.766685 14.64344,3.145799 3.17222,4.910845 1.76506,11.46472 -3.14742,14.64016 -4.9125,3.175483 -11.468,1.766753 -14.6418,-3.145756 -3.17387,-4.912527 -1.76511,-11.466361 3.14578,-14.640203"
         style="fill:#ffffff;fill-opacity:1;fill-rule:evenodd;stroke:none;stroke-width:0.164959" /><path
         id="path223"
         d="m 277.05952,230.73665 -3.55485,5.83811 -7.50403,-2.17729 5.68123,-9.32665 z m -2.8406,-24.70072 3.27612,5.99774 -5.63671,5.40891 -5.23578,-9.58234 z m -39.94332,29.62 -3.27612,-5.99593 5.63666,-5.40955 5.23747,9.58254 z m 17.13102,-39.50917 6.83429,0.15949 1.86243,7.58632 -10.91541,-0.25578 z m 5.6796,49.40017 -6.82933,-0.15843 -1.86733,-7.58815 10.91534,0.25577 z m -25.64958,-34.59059 3.55321,-5.83924 7.50403,2.18043 -5.67959,9.32553 -5.37765,-5.66672"
         style="fill:#3d92c5;fill-opacity:1;fill-rule:evenodd;stroke:none;stroke-width:0.164959" /><path
         id="path224"
         d="m 246.46443,216.10689 c -2.61622,4.29851 -1.25532,9.90405 3.04517,12.5234 4.29722,2.61807 9.90419,1.25389 12.52213,-3.04217 2.61621,-4.30049 1.25199,-9.90714 -3.04355,-12.52342 -4.30048,-2.61805 -9.90583,-1.25715 -12.52375,3.04219 z m -8.25457,-5.02482 c 5.39583,-8.85816 16.94469,-11.66449 25.803,-6.27045 8.85671,5.3927 11.66596,16.9432 6.27011,25.8 -5.39089,8.85635 -16.943,11.6658 -25.79967,6.27177 -8.85671,-5.39268 -11.66598,-16.94514 -6.27344,-25.80132"
         style="fill:#3d92c5;fill-opacity:1;fill-rule:evenodd;stroke:none;stroke-width:0.164959" /><path
         id="path225"
         d="m 246.46443,216.10689 c -2.61622,4.29851 -1.25532,9.90405 3.04517,12.5234 4.29722,2.61807 9.90419,1.25389 12.52213,-3.04217 2.61621,-4.30049 1.25199,-9.90714 -3.04355,-12.52342 -4.30048,-2.61805 -9.90583,-1.25715 -12.52375,3.04219 z m -5.99462,-3.64791 c 4.63371,-7.61259 14.55934,-10.02448 22.16896,-5.39073 7.60792,4.63554 10.01964,14.5577 5.38429,22.16778 -4.63043,7.6106 -14.55605,10.02245 -22.16567,5.38894 -7.60957,-4.63573 -10.02128,-14.55906 -5.38758,-22.16599"
         style="fill:#ffffff;fill-opacity:1;fill-rule:evenodd;stroke:none;stroke-width:0.164959" /><path
         id="path226"
         d="m 249.56734,217.99684 c -1.5737,2.58326 -0.75386,5.95654 1.82942,7.52877 2.58654,1.57684 5.95669,0.75714 7.53205,-1.82926 1.57538,-2.58342 0.7555,-5.95533 -1.83106,-7.53023 -2.58657,-1.57423 -5.95836,-0.75386 -7.53041,1.83072 z m -3.57304,-2.17549 c 2.77464,-4.55832 8.72145,-6.0029 13.27926,-3.22826 4.55624,2.77792 6.00126,8.72293 3.22828,13.27729 -2.77629,4.55962 -8.72143,6.00503 -13.27924,3.22842 -4.55949,-2.7748 -6.0029,-8.71976 -3.2283,-13.27745"
         style="fill:#3d92c5;fill-opacity:1;fill-rule:evenodd;stroke:none;stroke-width:0.164959" /><path
         id="path227"
         d="m 225.71416,210.57234 -2.09003,5.23877 -6.40538,-0.74049 3.34212,-8.37041 z m -5.70264,-19.70628 3.49055,4.42754 -3.8436,5.17627 -5.58056,-7.07659 z m -28.4308,29.58704 -3.49054,-4.43067 3.8419,-5.17495 5.57892,7.07711 z m 8.51191,-34.50296 5.57891,-0.80798 2.56186,5.91657 -8.91611,1.29198 z m 11.40699,39.41696 -5.58062,0.80876 -2.56183,-5.91924 8.91772,-1.2913 z m -25.62485,-24.62143 2.09331,-5.23945 6.40377,0.74103 -3.34046,8.3697 -5.15662,-3.87128"
         style="fill:#3d92c5;fill-opacity:1;fill-rule:evenodd;stroke:none;stroke-width:0.164959" /><path
         id="path228"
         d="m 198.81089,202.87199 c -1.53743,3.85661 0.33995,8.23136 4.19822,9.77075 3.85509,1.53874 8.22986,-0.34043 9.76893,-4.19556 1.54237,-3.85796 -0.33669,-8.23121 -4.19495,-9.77191 -3.85838,-1.53875 -8.23149,0.33948 -9.7722,4.19672 z m -7.40342,-2.95642 c 3.17055,-7.94576 12.18558,-11.81587 20.13005,-8.64554 7.94611,3.17235 11.81936,12.18577 8.64556,20.13156 -3.17053,7.94642 -12.18227,11.81786 -20.13167,8.64554 -7.9445,-3.1702 -11.81774,-12.18377 -8.64394,-20.13156"
         style="fill:#ffffff;fill-opacity:1;fill-rule:evenodd;stroke:none;stroke-width:0.164959" /><path
         id="path229"
         d="m 198.81089,202.87199 c -1.53743,3.85661 0.33995,8.23136 4.19822,9.77075 3.85509,1.53874 8.22986,-0.34043 9.76893,-4.19556 1.54237,-3.85796 -0.33669,-8.23121 -4.19495,-9.77191 -3.85838,-1.53875 -8.23149,0.33948 -9.7722,4.19672 z m -5.37771,-2.14759 c 2.7235,-6.82655 10.47004,-10.15343 17.29604,-7.42848 6.8277,2.72514 10.1533,10.46985 7.42978,17.2977 -2.72675,6.82769 -10.46998,10.15342 -17.29931,7.42828 -6.82437,-2.72693 -10.15165,-10.46851 -7.42651,-17.2975"
         style="fill:#65cbf3;fill-opacity:1;fill-rule:evenodd;stroke:none;stroke-width:0.164959" /><path
         id="path230"
         d="m 201.59706,203.98367 c -0.92707,2.31768 0.20293,4.95061 2.52061,5.87604 2.32094,0.92725 4.9521,-0.20485 5.87748,-2.52602 0.92706,-2.31722 -0.20442,-4.94879 -2.5239,-5.87408 -2.31929,-0.92543 -4.9504,0.20485 -5.87419,2.52406 z m -3.20684,-1.27973 c 1.63312,-4.09119 6.27015,-6.08225 10.36279,-4.44948 4.08937,1.62965 6.07877,6.27042 4.44895,10.35964 -1.63473,4.09116 -6.27176,6.08219 -10.36109,4.4506 -4.09101,-1.63342 -6.08373,-6.27158 -4.45065,-10.36076"
         style="fill:#abe4f5;fill-opacity:1;fill-rule:evenodd;stroke:none;stroke-width:0.164959" /><path
         id="path231"
         d="m 319.28425,98.876298 -2.87028,2.424882 -3.53175,-2.444662 4.58588,-3.87167 z m 2.82577,-13.3733 0.66479,3.69674 -3.88316,1.83767 -1.05902,-5.90887 z m -25.98938,8.47894 -0.66316,-3.6984 3.88152,-1.83767 1.06067,5.91052 z m 15.81964,-17.612757 3.53507,1.273477 -0.34977,4.28234 -5.64658,-2.037248 z m -5.64987,26.748209 -3.53511,-1.27513 0.35118,-4.282362 5.64657,2.03893 z m -7.34401,-22.508737 2.87029,-2.423258 3.53507,2.443039 -4.58913,3.873244 -1.81623,-3.893025"
         style="fill:#3582b3;fill-opacity:1;fill-rule:evenodd;stroke:none;stroke-width:0.164959" /><path
         id="path232"
         d="m 305.88296,85.913748 c -2.11314,1.78487 -2.38201,4.94713 -0.59718,7.06027 1.78488,2.11316 4.94715,2.38203 7.06028,0.59719 2.11645,-1.7849 2.38201,-4.9472 0.59882,-7.06029 -1.78485,-2.11314 -4.94551,-2.38037 -7.06192,-0.59717 z m -3.42622,-4.058 c 4.35656,-3.678616 10.86918,-3.12766 14.54781,1.22727 3.67695,4.35497 3.12598,10.87088 -1.22896,14.54616 -4.3566,3.678602 -10.87085,3.129312 -14.54616,-1.22895 -3.67859,-4.35658 -3.12929,-10.86917 1.22731,-14.54448"
         style="fill:#ffffff;fill-opacity:1;fill-rule:evenodd;stroke:none;stroke-width:0.164959" /><path
         id="path233"
         d="m 305.88296,85.913748 c -2.11314,1.78487 -2.38201,4.94713 -0.59718,7.06027 1.78488,2.11316 4.94715,2.38203 7.06028,0.59719 2.11645,-1.7849 2.38201,-4.9472 0.59882,-7.06029 -1.78485,-2.11314 -4.94551,-2.38037 -7.06192,-0.59717 z m -2.48597,-2.94781 c 3.73967,-3.158998 9.33509,-2.687234 12.4957,1.05571 3.15899,3.7446 2.68558,9.33674 -1.05739,12.49736 -3.73961,3.15899 -9.33672,2.68717 -12.49734,-1.05575 -3.15733,-3.74292 -2.68553,-9.33672 1.05903,-12.49732"
         style="fill:#3d92c5;fill-opacity:1;fill-rule:evenodd;stroke:none;stroke-width:0.164959" /><path
         id="path234"
         d="m 307.17293,87.437988 c -1.27182,1.07717 -1.43185,2.97587 -0.35958,4.24771 1.07225,1.27018 2.97423,1.43183 4.24605,0.35771 1.2702,-1.07222 1.43023,-2.97254 0.35959,-4.24443 -1.07553,-1.27015 -2.97585,-1.43348 -4.24606,-0.36099 z m -1.48464,-1.75355 c 2.24348,-1.89206 5.59378,-1.61164 7.48752,0.63181 1.89206,2.24179 1.60837,5.59216 -0.63181,7.48586 -2.24504,1.89046 -5.59544,1.60836 -7.48915,-0.63343 -1.89045,-2.24181 -1.60669,-5.59377 0.63344,-7.48424"
         style="fill:#d2f0fa;fill-opacity:1;fill-rule:evenodd;stroke:none;stroke-width:0.164959" /></g></g></svg>
